<svg xmlns="http://www.w3.org/2000/svg" version="1.1" x="0px" y="0px" viewBox="0 0 100 100"
     enable-background="new 0 0 100 100" xml:space="preserve">
    <path d="M21.3632813,49.840332c0,5.0831909,1.3370972,9.8574829,3.6691284,14.0001831  C20.05896,70.647644,14.911438,79.1916504,17.8603516,82.1396484c0.5649414,0.5649414,1.3647461,0.8291016,2.3652344,0.8291016  c3.4598389,0,9.3017578-3.1721191,15.9716187-8.0463867c4.0969238,2.263916,8.802002,3.5566406,13.8047485,3.5566406  c7.4154053,0,14.1809082-2.8334961,19.2723999-7.4738159c0.0244141-0.020752,0.0541382-0.0316162,0.0762329-0.0559692  c0.0106812-0.0116577,0.0136719-0.0268555,0.0234375-0.0390015c5.6921387-5.2376099,9.2666016-12.7431641,9.2666016-21.0698853  c0-5.0123291-1.2980347-9.725647-3.5700073-13.8280029c0.8886719-1.220459,1.7124634-2.4020996,2.4638672-3.5358887  c0.4395142,0.163208,0.9088745,0.2652588,1.40448,0.2652588c2.2397461,0,4.0620117-1.8222656,4.0620117-4.0620117  c0-1.263916-0.5923462-2.3806763-1.5004883-3.1262817c1.7297363-3.7789307,1.9573975-6.3752441,0.6391602-7.6930542  c-2.0717773-2.0722656-7.1416016-0.4243164-15.0693359,4.9018555c-0.34375,0.230957-0.4350586,0.6972656-0.2041016,1.0410156  c0.2319336,0.34375,0.6977539,0.4350586,1.0410156,0.2041016c8.0527344-5.4106445,12.0830078-6.1733398,13.171875-5.0864258  c0.7911987,0.7911987,0.4536133,2.9354248-0.8954468,5.9122925c-0.3947144-0.1282349-0.8078003-0.2155151-1.2446899-0.2155151  c-2.2397461,0-4.0620117,1.8222656-4.0620117,4.0620117c0,1.2042847,0.5371704,2.276123,1.3724365,3.0206299  c-0.6228027,0.9379883-1.2937012,1.907959-2.0130005,2.9078979c-5.0755615-8.0463257-14.038208-13.4065552-24.234436-13.4065552  C34.2104492,21.2016602,21.3632813,34.0488281,21.3632813,49.840332z M78.9389648,26.1176758  c1.4125977,0,2.5620117,1.1494141,2.5620117,2.5620117s-1.1494141,2.5620117-2.5620117,2.5620117  s-2.5620117-1.1494141-2.5620117-2.5620117S77.5263672,26.1176758,78.9389648,26.1176758z M31.171936,30.3247681  c1.7863159,1.5606689,3.7394409,2.8822632,5.817688,3.9432373c-0.4832153,1.3930664-0.9055786,2.8762207-1.2597656,4.4439697  c-2.2054443,0.039978-3.9891357,1.8398438-3.9891357,4.0546265c0,1.8262939,1.2194824,3.3567505,2.8811035,3.866272  c-0.048584,0.8140259-0.0780029,1.6342163-0.0894165,2.4574585H22.8823242  C23.0834961,41.7333984,26.2232056,35.1012573,31.171936,30.3247681z M22.8823242,50.590332h11.6470337  c0.0770264,5.4937744,0.9925537,10.6057739,2.5210571,14.9147949c-2.074585,1.0529175-4.0248413,2.3657837-5.8102417,3.9158325  C26.2522583,64.6397705,23.0844116,57.980896,22.8823242,50.590332z M35.8027344,40.2045898  c1.4130859,0,2.5625,1.1494141,2.5625,2.5620117s-1.1494141,2.5620117-2.5625,2.5620117  c-1.4125977,0-2.5620117-1.1494141-2.5620117-2.5620117S34.3901367,40.2045898,35.8027344,40.2045898z M53.5952148,56.4628906  c0-1.4125977,1.1494141-2.5620117,2.5625-2.5620117c1.4125977,0,2.5620117,1.1494141,2.5620117,2.5620117  s-1.1494141,2.5620117-2.5620117,2.5620117C54.7446289,59.0249023,53.5952148,57.8754883,53.5952148,56.4628906z   M58.484436,53.1427612c-0.6602173-0.4641724-1.4602051-0.7418823-2.3267212-0.7418823  c-2.2402344,0-4.0625,1.8222656-4.0625,4.0620117c0,0.864502,0.276062,1.6630249,0.7382813,2.3223267  c-0.6991577,0.6732178-1.3928833,1.3321533-2.081543,1.9780273V50.590332h10.1118164  C60.0877686,51.4326172,59.2423096,52.3480835,58.484436,53.1427612z M49.2519531,62.156311  c-0.100647,0.0925903-0.2018433,0.1862183-0.3022461,0.2781982c-3.6837158,0.1342773-7.2689819,0.9678955-10.5814819,2.4408569  c-1.4155884-4.1121216-2.2650757-9.0134277-2.3393555-14.2850342h13.2230835V62.156311z M37.5820923,66.920105  c0.5369873,1.3325195,1.1375732,2.5710449,1.7890625,3.7113037c-1.1217651,0.8886108-2.2102051,1.7224731-3.2667236,2.5076294  c-1.3269653-0.7945557-2.5780029-1.7014771-3.7459717-2.7034912C33.9706421,69.0542603,35.7235107,67.8776855,37.5820923,66.920105z   M38.8898315,66.2872314c2.6053467-1.1696777,5.3899536-1.9210205,8.2598877-2.2224121  c-2.3031006,2.0587158-4.526001,3.946106-6.649231,5.661499C39.9147949,68.6714478,39.3758545,67.5210571,38.8898315,66.2872314z   M49.2519531,64.1834106v12.7550049c-3.0097656-0.3103027-5.7681885-2.4800415-7.9801025-5.921875  C43.8968506,68.9017334,46.5835571,66.5994873,49.2519531,64.1834106z M50.7519531,76.9384155V63.9274902  c3.6102295,0.098999,7.1246338,0.9064331,10.3620605,2.3599243C58.6989136,72.4187622,54.9714966,76.5033569,50.7519531,76.9384155z   M62.4217529,66.9202881c1.8585815,0.9576416,3.6113892,2.1341553,5.2235718,3.5153809  c-3.3255005,2.8529663-7.3447266,4.9151611-11.7688599,5.8956299C58.493103,74.3386841,60.7529297,71.0612183,62.4217529,66.9202881  z M51.1555786,62.4368896c0.921875-0.8560791,1.838623-1.7230225,2.7476196-2.5983276  c0.6455688,0.4324951,1.4206543,0.6863403,2.2545166,0.6863403c2.2397461,0,4.0620117-1.8222656,4.0620117-4.0620117  c0-0.8317261-0.2531128-1.6047363-0.6837769-2.2493896c0.7888794-0.8262939,1.6760864-1.7871704,2.482605-2.6627197  l0.8869629-0.9604492h1.069519c-0.0742798,5.2715454-0.9237061,10.1727905-2.3392944,14.2849121  C58.3535767,63.4158325,54.8037109,62.5827026,51.1555786,62.4368896z M50.7519531,49.090332V37.3776245  c3.8029785-0.0988159,7.5065918-0.9412842,10.9194946-2.4644775c1.3936157,4.0901489,2.2299805,8.9511108,2.3035889,14.1771851  H50.7519531z M50.7519531,35.8776855V22.7417603c4.2438965,0.437561,7.9908447,4.5654907,10.4046021,10.7560425  C57.9073486,34.9633179,54.3781128,35.7782593,50.7519531,35.8776855z M49.2519531,35.8776245  c-3.6148682-0.0991211-7.1333618-0.9085083-10.3740234-2.3652344c2.4696655-6.2649536,6.2774048-10.3099976,10.3740234-10.7540894  V35.8776245z M49.2519531,37.3776245V49.090332H36.0324097c0.0109863-0.7683105,0.0383911-1.5332642,0.0825195-2.2932739  c2.0922852-0.1625977,3.7503052-1.897583,3.7503052-4.0304565c0-1.7434692-1.1098633-3.2213135-2.6558838-3.7962036  c0.3244019-1.4214478,0.7086182-2.7727661,1.1471558-4.0460815C41.7627563,36.4407959,45.4578857,37.2790527,49.2519531,37.3776245z   M18.9208984,81.0791016c-1.2185669-1.2185669-0.0725098-6.1044922,6.9539795-15.8392944  c1.335083,2.0843506,2.9285278,3.9871216,4.7415161,5.6574707c0.0134888,0.0177002,0.0182495,0.0391235,0.0335083,0.0558472  c0.0287476,0.0314941,0.0670776,0.0456543,0.0996094,0.071106c1.2529297,1.1397095,2.6109619,2.1643677,4.0509644,3.0701904  C26.4641113,80.1112061,20.4987793,82.6555176,18.9208984,81.0791016z M40.1481323,71.913147  c1.1900635,1.8208008,2.5304565,3.3148193,3.9793091,4.4181519c-2.3242798-0.5150757-4.5361938-1.3287964-6.5957642-2.399231  C38.3931885,73.2841797,39.2662964,72.6099854,40.1481323,71.913147z M68.7637329,69.4210205  c-1.7852173-1.5500488-3.7354736-2.8630371-5.8101807-3.9159546c1.5285034-4.30896,2.4439697-9.4210205,2.5209961-14.9147339  H77.121582C76.9194946,57.980896,73.7516479,64.6398315,68.7637329,69.4210205z M73.2846069,35.914978  c-1.9772949,2.6681519-4.2490845,5.5046387-6.7333374,8.3980103c-0.2700195,0.3144531-0.2338867,0.7880859,0.0800781,1.0576172  c0.1416016,0.121582,0.3154297,0.1811523,0.4882813,0.1811523c0.2114258,0,0.4213867-0.0888672,0.5693359-0.2612305  c2.3408813-2.7265625,4.4902954-5.4018555,6.3938599-7.9415894c1.8401489,3.53302,2.9232788,7.517395,3.0387573,11.741394  H65.4745483c-0.076355-5.4493408-0.9780884-10.522522-2.484375-14.8095093  c2.0874023-1.0631714,4.0487671-2.3892822,5.8417969-3.9561157C70.5484619,31.9814453,72.0499268,33.8583984,73.2846069,35.914978z   M67.71698,29.3071289c-1.6203613,1.3980103-3.3838501,2.588501-5.255249,3.5567017  c-1.6725464-4.1887817-3.9465332-7.505188-6.5842896-9.5142822C60.3330688,24.3372192,64.3778687,26.4223633,67.71698,29.3071289z   M37.5151978,32.8497925c-1.8613892-0.9656372-3.6158447-2.1513062-5.2283936-3.5426025  c3.3214722-2.8696289,7.3414307-4.9473267,11.7693481-5.9413452C41.4500122,25.3436279,39.1893921,28.6109009,37.5151978,32.8497925  z"></path>
    <path d="M20.2094727,21.8250122v2.0656128c0,0.4140625,0.3359375,0.75,0.75,0.75h8.1826172c0.4140625,0,0.75-0.3359375,0.75-0.75  s-0.3359375-0.75-0.75-0.75h-7.4326172v-1.3156128c1.8822021-0.3536377,3.3125-2.0031738,3.3125-3.986145  c0-2.2397461-1.8222656-4.0620117-4.0625-4.0620117c-2.2397461,0-4.0620117,1.8222656-4.0620117,4.0620117  C16.8974609,19.8217773,18.3276367,21.4713745,20.2094727,21.8250122z M20.9594727,15.2768555  c1.4130859,0,2.5625,1.1494141,2.5625,2.5620117s-1.1494141,2.5620117-2.5625,2.5620117  c-1.4125977,0-2.5620117-1.1494141-2.5620117-2.5620117S19.546875,15.2768555,20.9594727,15.2768555z"></path>
    <path d="M21.097168,33.9619141c0-1.9829712-1.4302979-3.6325073-3.3125-3.986145v-1.4118042h7.9282227  c0.4140625,0,0.75-0.3359375,0.75-0.75s-0.3359375-0.75-0.75-0.75H17.034668c-0.4140625,0-0.75,0.3359375-0.75,0.75v2.1618042  c-1.8818359,0.3536377-3.3120117,2.0032349-3.3120117,3.986145c0,2.2397461,1.8222656,4.0620117,4.0620117,4.0620117  C19.2749023,38.0239258,21.097168,36.2016602,21.097168,33.9619141z M14.4726563,33.9619141  c0-1.4125977,1.1494141-2.5620117,2.5620117-2.5620117c1.4130859,0,2.5625,1.1494141,2.5625,2.5620117  s-1.1494141,2.5620117-2.5625,2.5620117C15.6220703,36.5239258,14.4726563,35.3745117,14.4726563,33.9619141z"></path>
    <path d="M63.0556641,14.9145508c0.4140625,0,0.75-0.3359375,0.75-0.75v-1.7470703c0-0.4140625-0.3359375-0.75-0.75-0.75  s-0.75,0.3359375-0.75,0.75v1.7470703C62.3056641,14.5786133,62.6416016,14.9145508,63.0556641,14.9145508z"></path>
    <path d="M63.0556641,20.3398438c0.4140625,0,0.75-0.3359375,0.75-0.75v-1.7470703c0-0.4140625-0.3359375-0.75-0.75-0.75  s-0.75,0.3359375-0.75,0.75v1.7470703C62.3056641,20.0039063,62.6416016,20.3398438,63.0556641,20.3398438z"></path>
    <path d="M59.4697266,16.753418h1.7470703c0.4140625,0,0.75-0.3359375,0.75-0.75s-0.3359375-0.75-0.75-0.75h-1.7470703  c-0.4140625,0-0.75,0.3359375-0.75,0.75S59.0556641,16.753418,59.4697266,16.753418z"></path>
    <path d="M64.8950195,16.753418h1.7470703c0.4140625,0,0.75-0.3359375,0.75-0.75s-0.3359375-0.75-0.75-0.75h-1.7470703  c-0.4140625,0-0.75,0.3359375-0.75,0.75S64.480957,16.753418,64.8950195,16.753418z"></path>
    <path d="M80.8481445,68.3769531c-0.4140625,0-0.75,0.3359375-0.75,0.75v1.746582c0,0.4140625,0.3359375,0.75,0.75,0.75  s0.75-0.3359375,0.75-0.75v-1.746582C81.5981445,68.7128906,81.262207,68.3769531,80.8481445,68.3769531z"></path>
    <path d="M81.5981445,76.2993164v-1.7470703c0-0.4140625-0.3359375-0.75-0.75-0.75s-0.75,0.3359375-0.75,0.75v1.7470703  c0,0.4140625,0.3359375,0.75,0.75,0.75S81.5981445,76.7133789,81.5981445,76.2993164z"></path>
    <path d="M79.7592773,72.7128906c0-0.4140625-0.3359375-0.75-0.75-0.75H77.262207c-0.4140625,0-0.75,0.3359375-0.75,0.75  s0.3359375,0.75,0.75,0.75h1.7470703C79.4233398,73.4628906,79.7592773,73.1269531,79.7592773,72.7128906z"></path>
    <path d="M81.9375,72.7128906c0,0.4140625,0.3359375,0.75,0.75,0.75h1.7470703c0.4140625,0,0.75-0.3359375,0.75-0.75  s-0.3359375-0.75-0.75-0.75H82.6875C82.2734375,71.9628906,81.9375,72.2988281,81.9375,72.7128906z"></path>
</svg>
